<svg 
xmlns="http://www.w3.org/2000/svg" 
xmlns:xlink="http://www.w3.org/1999/xlink" 
width="20" 
zoomAndPan="magnify" viewBox="0 0 150 150" 
height="20" 
preserveAspectRatio="xMidYMid meet" version="1.0">
<defs>
<g/><clipPath id="09901f92b0">
<path d="M 0 0 L 150 0 L 150 150 L 0 150 Z M 0 0 " clip-rule="nonzero"/>
</clipPath>
<clipPath id="53c8bb4a4d">
<rect x="0" width="150" y="0" height="150"/>

</clipPath></defs><rect x="-15" width="180" fill="#ffffff" y="-15" height="179.999997" fill-opacity="1"/><rect x="-15" width="180" fill="#ffffff" y="-15" height="179.999997" fill-opacity="1"/><g transform="matrix(1, 0, 0, 1, 0, -0.000000000000007527)"><g clip-path="url(#53c8bb4a4d)"><g clip-path="url(#09901f92b0)"><rect x="-33" width="216" fill="#080808" height="215.999996" y="-32.999999" fill-opacity="1"/></g></g></g><g fill="#ea580c" fill-opacity="1"><g transform="translate(17.133857, 102.131495)"><g><path d="M 16.515625 0 L 3.296875 0 C 2.867188 0 2.503906 -0.148438 2.203125 -0.453125 C 1.898438 -0.753906 1.75 -1.046875 1.75 -1.328125 C 1.75 -1.609375 1.769531 -1.816406 1.8125 -1.953125 L 17.078125 -46.6875 C 17.492188 -48.226562 18.546875 -49 20.234375 -49 L 39.6875 -49 C 41.363281 -49 42.414062 -48.226562 42.84375 -46.6875 L 58.09375 -1.953125 C 58.144531 -1.816406 58.171875 -1.609375 58.171875 -1.328125 C 58.171875 -1.046875 58.019531 -0.753906 57.71875 -0.453125 C 57.414062 -0.148438 57.050781 0 56.625 0 L 43.40625 0 C 41.90625 0 40.851562 -0.789062 40.25 -2.375 L 38.5 -7.28125 L 21.421875 -7.28125 L 19.671875 -2.375 C 19.066406 -0.789062 18.015625 0 16.515625 0 Z M 34.9375 -20.9375 L 29.953125 -35.484375 L 24.984375 -20.9375 Z M 34.9375 -20.9375 "/></g></g></g><g fill="#ea580c" fill-opacity="1"><g transform="translate(76.630599, 102.131495)"><g><path d="M 53.765625 -47.109375 L 53.765625 -20.375 C 53.765625 -13.28125 51.429688 -7.992188 46.765625 -4.515625 C 42.097656 -1.035156 35.863281 0.703125 28.0625 0.703125 C 23.820312 0.703125 19.972656 0.15625 16.515625 -0.9375 C 13.066406 -2.039062 10.316406 -3.476562 8.265625 -5.25 C 4.015625 -8.9375 1.890625 -12.90625 1.890625 -17.15625 C 1.890625 -17.570312 2.039062 -17.929688 2.34375 -18.234375 C 2.644531 -18.535156 3.007812 -18.6875 3.4375 -18.6875 L 19.25 -18.6875 C 20.09375 -18.6875 20.675781 -18.175781 21 -17.15625 C 21.882812 -14.351562 24.125 -12.953125 27.71875 -12.953125 C 29.914062 -12.953125 31.65625 -13.460938 32.9375 -14.484375 C 34.21875 -15.515625 34.859375 -16.988281 34.859375 -18.90625 L 34.859375 -34.65625 L 9.3125 -34.65625 C 8.800781 -34.65625 8.359375 -34.835938 7.984375 -35.203125 C 7.609375 -35.578125 7.421875 -36.023438 7.421875 -36.546875 L 7.421875 -47.109375 C 7.421875 -47.617188 7.609375 -48.0625 7.984375 -48.4375 C 8.359375 -48.8125 8.800781 -49 9.3125 -49 L 51.875 -49 C 52.382812 -49 52.828125 -48.8125 53.203125 -48.4375 C 53.578125 -48.0625 53.765625 -47.617188 53.765625 -47.109375 Z M 53.765625 -47.109375 "/>
</g></g></g></svg>